{"glyphs":{":":{"x_min":0,"x_max":263,"ha":263,"o":"m 86 112 l 178 112 l 178 0 l 86 0 z m 86 508 l 178 508 l 178 397 l 86 397 z"},"$":{"x_min":0,"x_max":492,"ha":492,"o":"m 258 306 l 258 67 q 297 75 319 104 q 340 134 340 179 q 340 224 321 253 q 303 282 258 306 z m 217 626 q 180 619 159 593 q 139 568 139 529 q 139 495 156 471 q 173 447 217 420 z m 217 778 l 260 778 l 260 694 q 296 692 329 685 q 361 677 392 663 l 385 587 q 355 606 323 616 q 292 626 260 628 l 260 399 q 352 350 388 303 q 424 257 424 189 q 424 113 379 62 q 335 12 258 1 l 258 -93 l 215 -93 l 215 -1 q 173 -1 135 6 q 97 14 61 29 l 69 107 q 98 88 135 77 q 173 66 215 64 l 215 328 q 129 372 93 416 q 56 460 56 520 q 56 591 100 638 q 143 685 217 692 z"},"?":{"x_min":0,"x_max":397,"ha":397,"o":"m 123 103 l 214 103 l 214 0 l 123 0 z m 207 183 l 132 183 l 132 196 q 132 227 135 250 q 139 273 147 292 q 156 315 206 387 q 255 460 255 516 q 255 572 226 602 q 197 632 143 632 q 119 632 93 624 q 68 616 42 600 l 34 677 q 66 690 96 697 q 126 704 153 704 q 241 704 291 657 q 341 611 341 530 q 341 447 267 343 q 260 333 257 329 q 228 287 217 256 q 207 225 207 187 z"},"<":{"x_min":0,"x_max":833,"ha":833,"o":"m 704 497 l 216 298 l 704 100 l 704 37 l 129 273 l 129 323 l 704 559 z"},"'":{"x_min":0,"x_max":149,"ha":149,"o":"m 103 700 l 103 430 l 46 430 l 46 700 z"},"=":{"x_min":0,"x_max":833,"ha":833,"o":"m 709 233 l 709 176 l 124 176 l 124 233 z m 709 420 l 709 363 l 124 363 l 124 420 z"},"a":{"x_min":0,"x_max":458,"ha":458,"o":"m 310 253 q 302 253 292 254 q 281 254 260 254 q 184 254 147 228 q 110 201 110 147 q 110 104 133 80 q 156 56 197 56 q 255 56 282 94 q 310 133 310 214 z m 392 312 l 392 96 q 392 66 393 43 q 395 21 397 0 l 320 0 l 312 61 q 288 25 254 8 q 221 -10 175 -10 q 108 -10 68 31 q 28 73 28 143 q 28 226 87 269 q 146 312 262 312 q 265 312 281 311 q 296 310 310 309 l 310 340 q 310 394 283 423 q 256 451 204 451 q 168 451 137 438 q 106 425 81 400 l 72 475 q 105 496 143 507 q 181 518 217 518 q 312 518 352 472 q 392 426 392 312 z"},"L":{"x_min":0,"x_max":394,"ha":394,"o":"m 79 694 l 165 694 l 165 75 l 393 75 l 393 0 l 79 0 z"},"3":{"x_min":0,"x_max":492,"ha":492,"o":"m 277 362 q 340 352 376 308 q 412 263 412 194 q 412 100 351 45 q 291 -10 186 -10 q 149 -10 113 -3 q 76 3 42 16 l 49 96 q 80 80 111 72 q 142 64 175 64 q 244 64 282 100 q 320 136 320 202 q 320 265 283 295 q 247 324 168 324 q 151 324 142 324 q 133 323 125 322 l 125 397 l 128 397 q 155 395 167 395 q 239 395 278 426 q 317 457 317 514 q 317 572 285 602 q 254 633 194 633 q 164 633 135 623 q 105 613 71 592 l 62 671 q 95 687 134 696 q 172 704 213 704 q 301 704 354 654 q 407 604 407 522 q 407 461 373 419 q 339 377 277 362 z"},";":{"x_min":0,"x_max":263,"ha":263,"o":"m 96 112 l 185 112 l 120 -118 l 47 -118 z m 86 508 l 178 508 l 178 397 l 86 397 z"},"J":{"x_min":0,"x_max":301,"ha":301,"o":"m 139 694 l 225 694 l 225 222 q 225 90 188 41 q 150 -9 61 -9 q 47 -9 33 -7 q 19 -4 5 0 l 7 76 q 19 72 31 70 q 42 68 53 68 q 101 68 120 97 q 139 126 139 214 z"},"V":{"x_min":0,"x_max":530,"ha":530,"o":"m 11 694 l 104 694 l 261 100 l 432 694 l 518 694 l 303 0 l 215 0 z"},"\"":{"x_min":0,"x_max":288,"ha":288,"o":"m 242 700 l 242 430 l 184 430 l 184 700 z m 103 700 l 103 430 l 46 430 l 46 700 z"},"7":{"x_min":0,"x_max":492,"ha":492,"o":"m 57 694 l 416 694 l 416 607 l 211 0 l 115 0 l 335 622 l 57 622 z"},"S":{"x_min":0,"x_max":437,"ha":437,"o":"m 359 683 l 357 599 q 332 616 303 624 q 274 633 243 633 q 191 633 162 607 q 134 581 134 534 q 134 475 238 404 q 257 391 267 384 q 340 333 368 290 q 396 247 396 189 q 396 100 339 45 q 282 -10 190 -10 q 152 -10 116 -1 q 81 7 51 23 l 59 106 q 89 84 123 73 q 158 62 194 62 q 248 62 277 91 q 307 120 307 171 q 307 212 286 243 q 265 273 183 328 q 99 385 73 425 q 46 464 46 515 q 46 599 99 652 q 152 704 238 704 q 270 704 299 699 q 329 694 359 683 z"},"}":{"x_min":0,"x_max":500,"ha":500,"o":"m 275 543 l 275 424 q 275 350 302 319 q 329 289 395 289 q 398 289 406 290 q 413 290 417 290 l 417 228 q 413 228 406 229 q 398 229 395 229 q 329 229 302 199 q 275 168 275 94 l 275 -24 q 275 -99 264 -130 q 253 -161 227 -178 q 208 -191 179 -197 q 151 -202 101 -202 l 81 -202 l 81 -141 q 85 -141 92 -142 q 100 -142 103 -142 q 162 -142 183 -119 q 204 -96 204 -22 l 204 95 q 204 176 225 210 q 247 244 301 259 q 247 274 225 308 q 204 342 204 423 l 204 541 q 204 614 183 637 q 161 660 100 660 l 81 660 l 81 721 l 98 721 q 147 721 177 715 q 207 709 227 696 q 253 679 264 648 q 275 617 275 543 z"},"Z":{"x_min":0,"x_max":440,"ha":440,"o":"m 39 694 l 408 694 l 408 612 l 117 74 l 413 74 l 413 0 l 27 0 l 27 87 l 315 620 l 39 620 z"},"x":{"x_min":0,"x_max":403,"ha":403,"o":"m 18 508 l 110 508 l 204 324 l 301 508 l 390 508 l 250 269 l 400 0 l 307 0 l 194 218 l 89 0 l 5 0 l 150 275 z"},")":{"x_min":0,"x_max":256,"ha":256,"o":"m 7 755 l 70 755 q 139 634 174 523 q 208 413 208 311 q 208 209 174 100 q 140 -10 70 -132 l 7 -132 q 70 -7 98 99 q 127 205 127 311 q 127 417 98 524 q 69 631 7 755 z"},"&":{"x_min":0,"x_max":567,"ha":567,"o":"m 209 339 q 164 313 141 276 q 118 240 118 193 q 118 132 151 96 q 185 61 242 61 q 279 61 309 78 q 339 94 363 129 z m 275 378 l 409 196 q 428 230 437 280 q 447 330 447 392 l 525 392 l 525 370 q 525 306 507 244 q 489 183 457 135 l 555 0 l 456 0 l 406 75 q 369 31 324 11 q 280 -10 223 -10 q 137 -10 84 45 q 31 101 31 191 q 31 255 62 304 q 93 353 160 394 q 124 439 108 476 q 92 513 92 550 q 92 618 136 661 q 180 704 250 704 q 322 704 363 665 q 405 625 405 558 q 405 502 373 457 q 340 413 275 378 z m 233 429 q 280 453 303 485 q 327 518 327 559 q 327 596 307 618 q 287 639 251 639 q 215 639 194 617 q 173 596 173 559 q 173 530 188 498 q 202 466 233 429 z"},"_":{"x_min":0,"x_max":500,"ha":500,"o":"m 500 -178 l 500 -236 l 0 -236 l 0 -178 z"},"v":{"x_min":0,"x_max":436,"ha":436,"o":"m 18 508 l 108 508 l 218 86 l 333 508 l 418 508 l 265 0 l 166 0 z"},"O":{"x_min":0,"x_max":602,"ha":602,"o":"m 301 632 q 221 632 179 559 q 137 487 137 347 q 137 207 179 135 q 221 62 301 62 q 381 62 423 135 q 465 208 465 347 q 465 486 423 559 q 381 632 301 632 z m 301 704 q 423 704 490 611 q 556 518 556 347 q 556 176 490 83 q 423 -10 301 -10 q 179 -10 113 83 q 46 176 46 347 q 46 518 113 611 q 179 704 301 704 z"},"(":{"x_min":0,"x_max":256,"ha":256,"o":"m 186 755 l 249 755 q 187 631 158 524 q 129 417 129 311 q 129 204 158 97 q 187 -10 249 -132 l 186 -132 q 117 -11 83 99 q 49 208 49 311 q 49 414 83 524 q 117 634 186 755 z"},"C":{"x_min":0,"x_max":512,"ha":512,"o":"m 475 681 l 475 597 q 447 614 417 622 q 386 630 352 630 q 250 630 194 558 q 137 485 137 355 q 137 219 197 141 q 256 64 359 64 q 390 64 420 72 q 450 80 479 96 l 479 14 q 448 2 415 -4 q 383 -10 346 -10 q 211 -10 128 89 q 45 188 45 351 q 45 512 126 608 q 208 705 343 705 q 375 705 408 699 q 441 693 475 681 z"},"W":{"x_min":0,"x_max":822,"ha":822,"o":"m 27 694 l 113 694 l 231 91 l 357 694 l 466 694 l 589 91 l 711 694 l 792 694 l 640 0 l 537 0 l 408 610 l 278 0 l 176 0 z"},"A":{"x_min":0,"x_max":556,"ha":556,"o":"m 279 606 l 168 255 l 385 255 z m 233 694 l 330 694 l 553 0 l 461 0 l 408 182 l 145 182 l 89 0 l 2 0 z"},"f":{"x_min":0,"x_max":262,"ha":262,"o":"m 273 749 l 273 681 q 256 685 247 686 q 238 687 231 687 q 196 687 182 669 q 168 651 168 602 l 168 508 l 256 508 l 256 443 l 168 443 l 168 0 l 86 0 l 86 443 l 3 443 l 3 508 l 86 508 l 86 603 q 86 686 116 721 q 146 756 216 756 q 229 756 242 754 q 256 752 273 749 z"},"Q":{"x_min":0,"x_max":602,"ha":602,"o":"m 410 16 l 533 -128 l 433 -128 l 332 -8 q 324 -8 315 -9 q 307 -9 293 -9 q 177 -9 111 85 q 46 179 46 347 q 46 518 113 611 q 179 704 301 704 q 423 704 490 611 q 556 518 556 347 q 556 217 520 135 q 483 53 410 16 z m 301 632 q 221 632 179 559 q 137 487 137 347 q 137 207 179 135 q 221 62 301 62 q 381 62 423 135 q 465 208 465 347 q 465 486 423 559 q 381 632 301 632 z"},"w":{"x_min":0,"x_max":705,"ha":705,"o":"m 21 508 l 106 508 l 203 82 l 304 508 l 398 508 l 501 82 l 599 508 l 682 508 l 546 0 l 454 0 l 348 425 l 247 0 l 154 0 z"},"-":{"x_min":0,"x_max":294,"ha":294,"o":"m 41 297 l 253 297 l 253 225 l 41 225 z"},"E":{"x_min":0,"x_max":457,"ha":457,"o":"m 79 694 l 395 694 l 395 622 l 165 622 l 165 394 l 383 394 l 383 321 l 165 321 l 165 72 l 407 72 l 407 0 l 79 0 z"},"s":{"x_min":0,"x_max":373,"ha":373,"o":"m 307 500 l 300 426 q 277 438 254 443 q 230 449 207 449 q 170 449 150 432 q 130 415 130 382 q 130 356 144 339 q 157 322 203 298 q 282 256 309 222 q 336 187 336 138 q 336 71 290 29 q 244 -12 167 -12 q 134 -12 102 -5 q 70 2 39 16 l 46 94 q 73 75 104 66 q 134 56 166 56 q 208 56 231 76 q 254 95 254 131 q 254 156 239 175 q 224 193 164 227 l 162 228 q 46 293 46 373 q 46 439 89 478 q 131 517 205 517 q 229 517 254 513 q 279 509 307 500 z"},">":{"x_min":0,"x_max":833,"ha":833,"o":"m 704 323 l 704 273 l 129 37 l 129 100 l 617 298 l 129 497 l 129 559 z"},"l":{"x_min":0,"x_max":219,"ha":219,"o":"m 69 746 l 151 746 l 151 0 l 69 0 z"},"8":{"x_min":0,"x_max":492,"ha":492,"o":"m 231 327 q 178 303 153 269 q 129 234 129 183 q 129 126 161 93 q 193 60 248 60 q 298 60 329 92 q 360 124 360 175 q 360 228 328 266 q 295 304 231 327 z m 316 369 q 386 332 416 287 q 447 242 447 177 q 447 94 392 42 q 338 -10 251 -10 q 159 -10 102 43 q 45 96 45 181 q 45 243 76 288 q 108 333 172 363 q 118 394 90 436 q 63 478 63 530 q 63 606 114 655 q 165 704 244 704 q 330 704 379 660 q 429 616 429 541 q 429 490 401 448 q 374 405 316 369 z m 258 397 q 304 429 326 462 q 347 495 347 534 q 347 581 321 608 q 294 635 248 635 q 198 635 171 608 q 144 582 144 533 q 144 491 172 457 q 200 423 258 397 z"},"\\":{"x_min":0,"x_max":253,"ha":253,"o":"m 1 702 l 66 702 l 279 -93 l 214 -93 z"},"e":{"x_min":0,"x_max":447,"ha":447,"o":"m 407 232 l 126 232 q 128 146 164 102 q 200 58 267 58 q 295 58 323 66 q 351 74 381 91 l 383 21 q 355 6 323 -1 q 292 -9 254 -9 q 147 -9 94 57 q 40 123 40 253 q 40 375 92 446 q 144 518 232 518 q 312 518 360 454 q 408 390 408 282 q 408 259 408 250 q 408 240 407 232 z m 327 291 l 327 295 q 327 371 303 411 q 278 451 232 451 q 184 451 157 411 q 130 372 125 291 z"},"b":{"x_min":0,"x_max":494,"ha":494,"o":"m 153 224 q 153 145 181 102 q 209 58 259 58 q 312 58 338 107 q 365 157 365 254 q 365 351 339 400 q 312 449 260 449 q 209 449 181 406 q 153 363 153 284 z m 71 746 l 153 746 l 153 441 q 175 479 205 499 q 234 518 272 518 q 363 518 408 452 q 453 386 453 254 q 453 125 408 58 q 363 -10 278 -10 q 234 -10 203 10 q 171 31 147 75 q 147 73 147 70 q 145 23 143 0 l 71 0 z"},"%":{"x_min":0,"x_max":752,"ha":752,"o":"m 585 313 q 551 313 534 281 q 518 248 518 181 q 518 114 534 81 q 551 49 585 49 q 620 49 636 81 q 653 114 653 181 q 653 248 636 281 q 620 313 585 313 z m 586 372 q 651 372 687 322 q 722 272 722 181 q 722 89 686 40 q 650 -10 584 -10 q 520 -10 485 41 q 450 91 450 183 q 450 272 486 322 q 522 372 586 372 z m 489 704 l 551 704 l 263 -10 l 201 -10 z m 166 704 q 231 704 266 654 q 302 604 302 513 q 302 421 266 371 q 231 322 165 322 q 101 322 66 372 q 31 423 31 515 q 31 605 66 655 q 102 704 166 704 z m 166 645 q 132 645 115 613 q 99 580 99 513 q 99 446 115 413 q 132 381 166 381 q 201 381 217 413 q 234 446 234 513 q 234 580 217 613 q 201 645 166 645 z"},"m":{"x_min":0,"x_max":723,"ha":723,"o":"m 393 437 q 417 479 449 498 q 481 518 525 518 q 588 518 623 475 q 657 433 657 354 l 657 0 l 575 0 l 575 342 q 575 394 557 419 q 538 445 501 445 q 457 445 431 407 q 405 370 405 303 l 405 0 l 323 0 l 323 342 q 323 394 305 419 q 286 445 249 445 q 204 445 178 407 q 153 370 153 303 l 153 0 l 71 0 l 71 381 q 71 409 70 440 q 68 471 66 508 l 142 508 q 144 484 146 437 l 146 434 q 165 474 198 496 q 231 518 271 518 q 314 518 346 497 q 379 475 393 437 z"},"#":{"x_min":0,"x_max":769,"ha":769,"o":"m 475 421 l 346 421 l 300 288 l 428 288 z m 450 711 l 369 481 l 496 481 l 578 711 l 648 711 l 568 481 l 718 481 l 697 421 l 545 421 l 499 288 l 660 288 l 639 228 l 477 228 l 396 -1 l 325 -1 l 407 228 l 278 228 l 196 -1 l 126 -1 l 207 228 l 51 228 l 72 288 l 228 288 l 275 421 l 108 421 l 129 481 l 297 481 l 379 711 z"},",":{"x_min":0,"x_max":246,"ha":246,"o":"m 86 112 l 175 112 l 110 -118 l 37 -118 z"},"n":{"x_min":0,"x_max":486,"ha":486,"o":"m 421 354 l 421 0 l 338 0 l 338 342 q 338 394 318 419 q 299 445 259 445 q 210 445 182 408 q 154 371 154 306 l 154 303 l 154 0 l 71 0 l 71 381 q 71 409 70 440 q 68 471 66 508 l 142 508 q 144 484 146 437 l 146 434 q 166 474 201 496 q 236 518 280 518 q 348 518 384 475 q 421 433 421 354 z"},"h":{"x_min":0,"x_max":486,"ha":486,"o":"m 71 746 l 154 746 l 154 447 q 178 483 209 500 q 241 518 282 518 q 347 518 384 475 q 421 432 421 354 l 421 0 l 338 0 l 338 342 q 338 394 318 419 q 299 445 259 445 q 210 445 182 408 q 154 371 154 306 l 154 303 l 154 0 l 71 0 z"},"z":{"x_min":0,"x_max":378,"ha":378,"o":"m 35 508 l 343 508 l 343 428 l 115 68 l 346 68 l 346 0 l 28 0 l 28 81 l 255 440 l 35 440 z"},"B":{"x_min":0,"x_max":494,"ha":494,"o":"m 163 325 l 163 72 l 225 72 q 299 72 335 103 q 370 133 370 198 q 370 264 335 294 q 300 325 225 325 z m 163 622 l 163 394 l 225 394 q 291 394 323 423 q 354 452 354 512 q 354 570 321 596 q 288 622 212 622 z m 79 694 l 231 694 q 334 694 388 651 q 442 608 442 525 q 442 460 412 419 q 382 377 324 364 q 389 351 423 310 q 457 269 457 204 q 457 98 398 49 q 338 0 208 0 l 79 0 z"},"K":{"x_min":0,"x_max":491,"ha":491,"o":"m 79 694 l 165 694 l 165 394 l 395 694 l 497 694 l 241 369 l 521 0 l 414 0 l 165 336 l 165 0 l 79 0 z"},"R":{"x_min":0,"x_max":500,"ha":500,"o":"m 164 622 l 164 385 l 201 385 q 290 385 325 414 q 360 442 360 511 q 360 571 326 597 q 293 622 206 622 z m 79 694 l 197 694 q 335 694 392 652 q 448 609 448 512 q 448 444 412 402 q 376 360 308 347 q 342 343 362 324 q 381 305 401 247 l 488 0 l 396 0 l 321 221 q 301 281 280 297 q 259 313 213 313 l 164 313 l 164 0 l 79 0 z"},"T":{"x_min":0,"x_max":440,"ha":440,"o":"m 18 694 l 422 694 l 422 620 l 263 620 l 263 0 l 177 0 l 177 620 l 18 620 z"},"P":{"x_min":0,"x_max":470,"ha":470,"o":"m 165 622 l 165 365 l 226 365 q 296 365 326 396 q 356 426 356 498 q 356 565 324 594 q 292 622 214 622 z m 79 694 l 220 694 q 333 694 389 645 q 444 597 444 497 q 444 390 386 341 q 329 292 204 292 l 165 292 l 165 0 l 79 0 z"},"|":{"x_min":0,"x_max":500,"ha":500,"o":"m 281 764 l 281 -236 l 219 -236 l 219 764 z"},"t":{"x_min":0,"x_max":282,"ha":282,"o":"m 162 636 l 162 508 l 264 508 l 264 443 l 162 443 l 162 156 q 162 101 175 83 q 188 64 220 64 q 232 64 244 66 q 255 68 266 72 l 266 5 q 246 0 229 -3 q 211 -6 196 -6 q 131 -6 106 27 q 80 61 80 166 l 80 443 l 3 443 l 3 508 l 80 508 l 80 611 z"},"M":{"x_min":0,"x_max":767,"ha":767,"o":"m 79 694 l 205 694 l 384 131 l 562 694 l 691 694 l 691 0 l 610 0 l 610 617 l 412 0 l 351 0 l 155 617 l 155 0 l 79 0 z"},"g":{"x_min":0,"x_max":494,"ha":494,"o":"m 341 289 q 341 366 313 408 q 285 450 234 450 q 182 450 155 402 q 129 354 129 260 q 129 165 155 116 q 182 68 234 68 q 285 68 313 110 q 341 152 341 230 z m 347 433 q 348 463 349 479 q 350 496 351 508 l 428 508 q 426 463 425 428 q 424 393 424 376 l 424 55 q 424 -98 373 -160 q 323 -222 204 -222 q 164 -222 128 -215 q 93 -208 59 -194 l 66 -116 q 100 -136 134 -145 q 167 -154 204 -154 q 278 -154 310 -109 q 342 -64 342 41 q 342 46 341 58 q 341 69 341 75 q 318 36 288 18 q 258 0 217 0 q 130 0 86 66 q 41 131 41 259 q 41 384 86 451 q 131 518 216 518 q 259 518 291 498 q 322 478 347 433 z"},"j":{"x_min":0,"x_max":219,"ha":219,"o":"m 69 508 l 151 508 l 151 -32 q 151 -143 125 -182 q 99 -222 35 -222 q 22 -222 10 -220 q -2 -219 -15 -215 l -13 -147 q -5 -149 2 -150 q 9 -151 18 -151 q 47 -151 58 -131 q 69 -111 69 -32 l 69 -12 z m 64 714 l 155 714 l 155 616 l 64 616 z"},"i":{"x_min":0,"x_max":219,"ha":219,"o":"m 69 508 l 151 508 l 151 0 l 69 0 z m 64 714 l 155 714 l 155 616 l 64 616 z"},"y":{"x_min":0,"x_max":421,"ha":421,"o":"m 17 508 l 108 508 l 217 93 l 326 508 l 406 508 l 241 -66 q 213 -162 185 -192 q 156 -222 105 -222 q 88 -222 74 -220 q 60 -218 47 -214 l 54 -143 q 68 -147 76 -148 q 84 -150 90 -150 q 117 -150 132 -133 q 147 -117 159 -75 l 175 -18 z"},"@":{"x_min":0,"x_max":1000,"ha":1000,"o":"m 631 412 l 659 471 l 713 471 l 644 194 q 641 182 640 172 q 638 163 638 155 q 638 133 652 122 q 665 111 692 111 q 714 111 741 123 q 768 134 791 154 q 834 191 859 250 q 884 309 884 374 q 884 504 788 583 q 693 662 535 662 q 453 662 383 637 q 312 611 256 562 q 188 502 153 424 q 118 346 118 251 q 118 167 148 103 q 177 39 239 -10 q 288 -49 356 -71 q 424 -92 500 -92 q 584 -92 663 -68 q 743 -44 808 0 l 830 -32 q 758 -85 677 -113 q 596 -140 508 -140 q 415 -140 338 -117 q 261 -95 203 -50 q 128 7 92 83 q 55 159 55 255 q 55 334 80 406 q 104 477 153 537 q 224 623 323 667 q 423 712 545 712 q 625 712 697 691 q 768 669 818 630 q 881 582 913 518 q 946 454 946 380 q 946 297 915 229 q 885 161 826 114 q 792 87 754 73 q 715 59 674 59 q 625 59 601 78 q 577 97 577 135 q 577 136 578 140 q 578 144 578 146 q 553 104 516 81 q 479 59 433 59 q 358 59 319 101 q 280 142 280 221 q 280 333 347 411 q 414 489 509 489 q 553 489 584 469 q 614 450 631 412 z m 587 231 l 616 349 q 608 393 581 417 q 554 442 515 442 q 444 442 396 378 q 348 313 348 218 q 348 164 373 135 q 398 106 444 106 q 494 106 533 140 q 573 175 587 231 z"},".":{"x_min":0,"x_max":246,"ha":246,"o":"m 77 112 l 169 112 l 169 0 l 77 0 z"},"p":{"x_min":0,"x_max":494,"ha":494,"o":"m 153 67 l 153 -218 l 71 -218 l 71 376 q 71 384 68 450 q 67 486 66 508 l 143 508 q 144 495 145 479 q 146 464 147 433 q 171 477 203 497 q 235 518 278 518 q 363 518 408 451 q 453 383 453 254 q 453 125 408 57 q 364 -10 278 -10 q 237 -10 206 9 q 176 27 153 67 z m 153 224 q 153 145 181 102 q 208 59 259 59 q 312 59 338 108 q 365 157 365 254 q 365 352 339 401 q 312 450 260 450 q 209 450 181 406 q 153 363 153 284 z"},"X":{"x_min":0,"x_max":537,"ha":537,"o":"m 32 694 l 132 694 l 272 432 l 418 694 l 510 694 l 320 366 l 523 0 l 425 0 l 267 293 l 103 0 l 12 0 l 219 361 z"},"*":{"x_min":0,"x_max":347,"ha":347,"o":"m 137 745 l 210 745 l 198 617 l 316 668 l 338 600 l 212 572 l 298 475 l 239 433 l 174 544 l 109 433 l 50 475 l 135 572 l 9 600 l 31 668 l 150 617 z"},"Y":{"x_min":0,"x_max":471,"ha":471,"o":"m -15 694 l 84 694 l 241 372 l 395 694 l 486 694 l 283 292 l 283 0 l 197 0 l 197 293 z"},"c":{"x_min":0,"x_max":377,"ha":377,"o":"m 360 500 l 358 424 q 336 437 316 443 q 296 448 274 448 q 202 448 166 402 q 129 355 129 264 q 129 165 167 113 q 205 60 276 60 q 297 60 318 65 q 339 70 364 82 l 366 11 q 340 1 313 -4 q 285 -9 257 -9 q 156 -9 99 61 q 41 131 41 256 q 41 377 100 448 q 159 518 261 518 q 285 518 310 514 q 334 509 360 500 z"},"!":{"x_min":0,"x_max":289,"ha":289,"o":"m 100 103 l 191 103 l 191 0 l 100 0 z m 100 694 l 191 694 l 176 183 l 115 183 z"},"/":{"x_min":0,"x_max":253,"ha":253,"o":"m 187 702 l 252 702 l 39 -93 l -26 -93 z"},"[":{"x_min":0,"x_max":256,"ha":256,"o":"m 79 755 l 224 755 l 224 698 l 149 698 l 149 -76 l 224 -76 l 224 -132 l 79 -132 z"},"6":{"x_min":0,"x_max":492,"ha":492,"o":"m 253 371 q 201 371 173 331 q 145 291 145 216 q 145 141 173 101 q 201 61 253 61 q 306 61 334 101 q 362 141 362 215 q 362 292 334 331 q 306 371 253 371 z m 420 684 l 412 604 q 390 619 363 626 q 337 634 307 634 q 226 634 185 569 q 144 504 141 368 q 163 404 195 422 q 228 441 270 441 q 350 441 398 382 q 447 322 447 224 q 447 114 394 53 q 342 -9 248 -9 q 152 -9 103 71 q 53 150 53 304 q 53 509 114 607 q 174 704 302 704 q 332 704 361 699 q 391 694 420 684 z"},"r":{"x_min":0,"x_max":289,"ha":289,"o":"m 287 517 l 287 434 q 281 435 276 435 q 271 435 266 435 q 211 435 182 398 q 153 360 153 290 l 153 0 l 71 0 l 71 381 q 71 409 70 440 q 68 471 66 508 l 142 508 q 145 473 145 455 q 146 438 146 422 q 166 469 198 493 q 231 517 278 517 z"},"2":{"x_min":0,"x_max":492,"ha":492,"o":"m 143 76 l 407 76 l 407 0 l 48 0 l 48 78 q 190 242 250 342 q 309 441 309 512 q 309 567 281 598 q 253 629 203 629 q 171 629 140 617 q 109 605 75 579 l 64 660 q 95 681 135 692 q 175 704 216 704 q 298 704 347 655 q 396 605 396 523 q 396 438 336 333 q 277 227 143 76 z"},"{":{"x_min":0,"x_max":500,"ha":500,"o":"m 419 659 q 415 659 408 660 q 400 660 397 660 q 338 660 317 637 q 296 614 296 541 l 296 423 q 296 342 275 308 q 253 274 199 259 q 253 244 275 210 q 296 176 296 95 l 296 -23 q 296 -96 317 -118 q 338 -141 400 -141 l 419 -141 l 419 -202 l 402 -202 q 354 -202 324 -196 q 294 -190 274 -177 q 247 -159 236 -128 q 225 -97 225 -24 l 225 95 q 225 169 198 199 q 171 229 106 229 q 103 229 95 229 q 88 228 84 228 l 84 290 q 88 290 95 290 q 103 289 106 289 q 171 289 198 319 q 225 349 225 424 l 225 543 q 225 618 236 648 q 247 679 274 696 q 294 709 324 715 q 353 721 402 721 l 419 721 z"},"9":{"x_min":0,"x_max":492,"ha":492,"o":"m 69 11 l 77 90 q 99 75 125 68 q 151 61 182 61 q 263 61 304 125 q 344 190 348 327 q 325 291 292 272 q 259 253 218 253 q 138 253 90 312 q 42 372 42 470 q 42 578 94 641 q 146 704 233 704 q 335 704 385 624 q 435 544 435 380 q 435 183 374 86 q 312 -10 186 -10 q 158 -10 128 -5 q 99 0 69 11 z m 234 634 q 182 634 154 594 q 126 555 126 480 q 126 404 154 364 q 182 324 234 324 q 287 324 315 364 q 343 403 343 478 q 343 554 315 594 q 287 634 234 634 z"}," ":{"x_min":0,"x_max":246,"ha":246,"o":""},"I":{"x_min":0,"x_max":244,"ha":244,"o":"m 79 694 l 165 694 l 165 0 l 79 0 z"},"H":{"x_min":0,"x_max":571,"ha":571,"o":"m 79 694 l 165 694 l 165 397 l 406 397 l 406 694 l 492 694 l 492 0 l 406 0 l 406 322 l 165 322 l 165 0 l 79 0 z"},"4":{"x_min":0,"x_max":492,"ha":492,"o":"m 301 603 l 101 229 l 301 229 z m 278 694 l 381 694 l 381 229 l 457 229 l 457 159 l 381 159 l 381 0 l 300 0 l 300 159 l 31 159 l 31 237 z"},"~":{"x_min":0,"x_max":833,"ha":833,"o":"m 747 306 q 698 271 651 253 q 604 236 558 236 q 537 236 514 240 q 491 245 465 253 q 450 258 422 268 q 324 303 275 303 q 234 303 190 285 q 146 267 87 225 l 87 290 q 138 326 186 343 q 233 361 276 361 q 303 361 333 355 q 362 349 418 329 q 425 327 439 321 q 517 293 559 293 q 600 293 644 311 q 688 329 747 370 z"},"D":{"x_min":0,"x_max":584,"ha":584,"o":"m 165 622 l 165 72 l 197 72 q 318 72 381 143 q 445 213 445 347 q 445 489 386 555 q 328 622 203 622 z m 79 694 l 195 694 q 369 694 453 609 q 536 524 536 347 q 536 180 448 90 q 359 0 195 0 l 79 0 z"},"^":{"x_min":0,"x_max":1000,"ha":1000,"o":"m 539 712 l 793 440 l 716 440 l 500 654 l 284 440 l 206 440 l 460 712 z"},"0":{"x_min":0,"x_max":492,"ha":492,"o":"m 246 632 q 188 632 159 560 q 130 489 130 347 q 130 207 159 135 q 188 63 246 63 q 303 63 333 135 q 362 207 362 347 q 362 488 333 560 q 303 632 246 632 z m 246 704 q 345 704 397 612 q 449 521 449 347 q 449 174 397 83 q 344 -9 246 -9 q 147 -9 95 82 q 43 173 43 347 q 43 521 95 612 q 147 704 246 704 z"},"F":{"x_min":0,"x_max":412,"ha":412,"o":"m 79 694 l 385 694 l 385 622 l 165 622 l 165 392 l 376 392 l 376 319 l 165 319 l 165 0 l 79 0 z"},"`":{"x_min":0,"x_max":500,"ha":500,"o":"m 127 745 l 216 745 l 316 572 l 265 572 z"},"k":{"x_min":0,"x_max":421,"ha":421,"o":"m 69 746 l 151 746 l 151 306 l 325 508 l 418 508 l 222 283 l 435 0 l 339 0 l 151 254 l 151 0 l 69 0 z"},"u":{"x_min":0,"x_max":486,"ha":486,"o":"m 66 508 l 149 508 l 149 166 q 149 114 169 89 q 188 63 228 63 q 276 63 305 100 q 333 138 333 203 l 333 206 l 333 508 l 416 508 l 416 128 q 416 93 417 61 q 418 30 420 0 l 344 0 q 343 15 342 49 q 341 65 341 74 q 322 34 287 12 q 251 -10 207 -10 q 139 -10 103 33 q 66 75 66 154 z"},"]":{"x_min":0,"x_max":256,"ha":256,"o":"m 32 755 l 178 755 l 178 -132 l 32 -132 l 32 -76 l 108 -76 l 108 698 l 32 698 z"},"U":{"x_min":0,"x_max":580,"ha":580,"o":"m 76 694 l 162 694 l 162 247 q 162 148 193 105 q 224 62 292 62 q 360 62 391 105 q 422 148 422 247 l 422 694 l 504 694 l 504 255 q 504 120 452 55 q 399 -10 290 -10 q 181 -10 129 55 q 76 120 76 255 z"},"o":{"x_min":0,"x_max":486,"ha":486,"o":"m 243 450 q 188 450 158 399 q 129 349 129 254 q 129 160 158 109 q 188 59 243 59 q 298 59 328 109 q 357 160 357 254 q 357 349 328 399 q 298 450 243 450 z m 243 518 q 340 518 393 450 q 445 381 445 254 q 445 127 392 59 q 340 -10 243 -10 q 146 -10 94 59 q 41 127 41 254 q 41 381 94 449 q 146 518 243 518 z"},"N":{"x_min":0,"x_max":608,"ha":608,"o":"m 79 694 l 181 694 l 449 118 l 449 694 l 528 694 l 528 0 l 423 0 l 159 569 l 159 0 l 79 0 z"},"+":{"x_min":0,"x_max":833,"ha":833,"o":"m 446 596 l 446 327 l 709 327 l 709 270 l 446 270 l 446 0 l 388 0 l 388 270 l 124 270 l 124 327 l 388 327 l 388 596 z"},"G":{"x_min":0,"x_max":586,"ha":586,"o":"m 507 676 l 503 591 q 469 612 434 623 q 399 633 362 633 q 256 633 197 559 q 137 485 137 353 q 137 213 194 138 q 250 63 355 63 q 381 63 403 68 q 425 72 445 82 l 445 307 l 330 307 l 330 379 l 528 379 l 528 29 q 489 9 446 0 q 403 -10 356 -10 q 207 -10 126 83 q 45 175 45 346 q 45 512 129 609 q 214 705 359 705 q 400 705 438 698 q 476 690 507 676 z"},"q":{"x_min":0,"x_max":494,"ha":494,"o":"m 341 284 q 341 363 313 406 q 285 450 234 450 q 182 450 156 401 q 129 351 129 254 q 129 157 155 108 q 182 59 234 59 q 285 59 313 102 q 341 145 341 224 z m 347 433 q 347 448 348 465 q 349 481 351 508 l 428 508 q 426 465 425 430 q 424 395 424 376 l 424 -218 l 341 -218 l 341 67 q 318 27 288 9 q 258 -10 216 -10 q 130 -10 86 57 q 41 125 41 254 q 41 386 86 452 q 132 518 222 518 q 261 518 292 497 q 324 476 347 433 z"},"d":{"x_min":0,"x_max":494,"ha":494,"o":"m 341 284 q 341 363 313 406 q 285 449 234 449 q 182 449 155 400 q 129 351 129 254 q 129 156 155 107 q 182 58 234 58 q 285 58 313 101 q 341 145 341 224 z m 341 746 l 424 746 l 424 0 l 351 0 q 349 26 348 43 q 347 60 347 75 q 322 30 291 10 q 259 -10 216 -10 q 130 -10 86 57 q 41 125 41 254 q 41 386 86 452 q 131 518 222 518 q 260 518 289 499 q 319 479 341 441 z"},"1":{"x_min":0,"x_max":492,"ha":492,"o":"m 230 694 l 303 694 l 303 0 l 222 0 l 222 592 l 132 498 l 88 559 z"},"5":{"x_min":0,"x_max":492,"ha":492,"o":"m 79 694 l 394 694 l 394 623 l 158 623 l 158 429 q 180 435 198 437 q 215 439 231 439 q 323 439 375 382 q 427 325 427 225 q 427 115 367 53 q 307 -9 201 -9 q 167 -9 134 -2 q 100 4 70 16 l 76 101 q 101 83 132 73 q 163 64 199 64 q 267 64 303 104 q 340 144 340 218 q 340 292 304 331 q 268 370 199 370 q 167 370 138 364 q 108 357 79 345 z"}}}
